<svg width="125" height="125" viewBox="0 0 125 125" fill="none" 
  xmlns="http://www.w3.org/2000/svg">
  <rect x="1" y="1" width="123" height="123" fill="#FCFCFC" stroke="#57575F" stroke-width="2"/>
  <path d="M38.0781 88.3623C38.0781 89.5407 37.7575 90.4424 37.1162 91.0674C36.4782 91.6891 35.5586 92 34.3574 92H32.3799V84.8613H34.5674C35.6774 84.8613 36.54 85.1689 37.1553 85.7842C37.7705 86.3994 38.0781 87.2588 38.0781 88.3623ZM37.1992 88.3916C37.1992 87.4606 36.9648 86.7591 36.4961 86.2871C36.0306 85.8151 35.3372 85.5791 34.416 85.5791H33.21V91.2822H34.2207C35.2103 91.2822 35.9541 91.0397 36.4521 90.5547C36.9502 90.0664 37.1992 89.3454 37.1992 88.3916ZM41.8135 92.0977C41.0225 92.0977 40.3975 91.8568 39.9385 91.375C39.4827 90.8932 39.2549 90.2243 39.2549 89.3682C39.2549 88.5055 39.4665 87.8203 39.8896 87.3125C40.3161 86.8047 40.8874 86.5508 41.6035 86.5508C42.2741 86.5508 42.8047 86.7721 43.1953 87.2148C43.5859 87.6543 43.7812 88.2354 43.7812 88.958V89.4707H40.0947C40.111 90.099 40.2689 90.5758 40.5684 90.9014C40.8711 91.2269 41.2959 91.3896 41.8428 91.3896C42.4189 91.3896 42.9886 91.2692 43.5518 91.0283V91.751C43.2653 91.8747 42.9935 91.9626 42.7363 92.0146C42.4824 92.07 42.1748 92.0977 41.8135 92.0977ZM41.5938 87.2295C41.1641 87.2295 40.8206 87.3695 40.5635 87.6494C40.3096 87.9294 40.1598 88.3167 40.1143 88.8115H42.9121C42.9121 88.3005 42.7982 87.9098 42.5703 87.6396C42.3424 87.3662 42.0169 87.2295 41.5938 87.2295ZM45.9785 92H45.168V84.4023H45.9785V92ZM49.958 92.0977C49.167 92.0977 48.542 91.8568 48.083 91.375C47.6273 90.8932 47.3994 90.2243 47.3994 89.3682C47.3994 88.5055 47.611 87.8203 48.0342 87.3125C48.4606 86.8047 49.0319 86.5508 49.748 86.5508C50.4186 86.5508 50.9492 86.7721 51.3398 87.2148C51.7305 87.6543 51.9258 88.2354 51.9258 88.958V89.4707H48.2393C48.2555 90.099 48.4134 90.5758 48.7129 90.9014C49.0156 91.2269 49.4404 91.3896 49.9873 91.3896C50.5635 91.3896 51.1331 91.2692 51.6963 91.0283V91.751C51.4098 91.8747 51.138 91.9626 50.8809 92.0146C50.627 92.07 50.3193 92.0977 49.958 92.0977ZM49.7383 87.2295C49.3086 87.2295 48.9652 87.3695 48.708 87.6494C48.4541 87.9294 48.3044 88.3167 48.2588 88.8115H51.0566C51.0566 88.3005 50.9427 87.9098 50.7148 87.6396C50.487 87.3662 50.1615 87.2295 49.7383 87.2295ZM55.041 91.4287C55.1842 91.4287 55.3226 91.4189 55.4561 91.3994C55.5895 91.3766 55.6953 91.3538 55.7734 91.3311V91.9512C55.6855 91.9935 55.5553 92.0277 55.3828 92.0537C55.2135 92.083 55.0605 92.0977 54.9238 92.0977C53.8887 92.0977 53.3711 91.5524 53.3711 90.4619V87.2783H52.6045V86.8877L53.3711 86.5508L53.7129 85.4082H54.1816V86.6484H55.7344V87.2783H54.1816V90.4277C54.1816 90.75 54.2581 90.9974 54.4111 91.1699C54.5641 91.3424 54.7741 91.4287 55.041 91.4287ZM59.1084 92.0977C58.3174 92.0977 57.6924 91.8568 57.2334 91.375C56.7777 90.8932 56.5498 90.2243 56.5498 89.3682C56.5498 88.5055 56.7614 87.8203 57.1846 87.3125C57.611 86.8047 58.1823 86.5508 58.8984 86.5508C59.569 86.5508 60.0996 86.7721 60.4902 87.2148C60.8809 87.6543 61.0762 88.2354 61.0762 88.958V89.4707H57.3896C57.4059 90.099 57.5638 90.5758 57.8633 90.9014C58.166 91.2269 58.5908 91.3896 59.1377 91.3896C59.7139 91.3896 60.2835 91.2692 60.8467 91.0283V91.751C60.5602 91.8747 60.2884 91.9626 60.0312 92.0146C59.7773 92.07 59.4697 92.0977 59.1084 92.0977ZM58.8887 87.2295C58.459 87.2295 58.1156 87.3695 57.8584 87.6494C57.6045 87.9294 57.4548 88.3167 57.4092 88.8115H60.207C60.207 88.3005 60.0931 87.9098 59.8652 87.6396C59.6374 87.3662 59.3118 87.2295 58.8887 87.2295ZM66.1055 91.2822H66.0615C65.6872 91.8258 65.1273 92.0977 64.3818 92.0977C63.682 92.0977 63.1367 91.8584 62.7461 91.3799C62.3587 90.9014 62.165 90.221 62.165 89.3389C62.165 88.4567 62.3604 87.7715 62.751 87.2832C63.1416 86.7949 63.6852 86.5508 64.3818 86.5508C65.1077 86.5508 65.6644 86.8145 66.0518 87.3418H66.1152L66.0811 86.9561L66.0615 86.5801V84.4023H66.8721V92H66.2129L66.1055 91.2822ZM64.4844 91.4189C65.0378 91.4189 65.4382 91.2692 65.6855 90.9697C65.9362 90.667 66.0615 90.1803 66.0615 89.5098V89.3389C66.0615 88.5804 65.9346 88.04 65.6807 87.7178C65.43 87.3923 65.028 87.2295 64.4746 87.2295C63.9993 87.2295 63.6348 87.415 63.3809 87.7861C63.1302 88.154 63.0049 88.6748 63.0049 89.3486C63.0049 90.0322 63.1302 90.5482 63.3809 90.8965C63.6315 91.2448 63.9993 91.4189 64.4844 91.4189ZM74.4844 92L74.3232 91.2383H74.2842C74.0173 91.5736 73.7503 91.8014 73.4834 91.9219C73.2197 92.0391 72.8893 92.0977 72.4922 92.0977C71.9616 92.0977 71.5449 91.9609 71.2422 91.6875C70.9427 91.4141 70.793 91.0251 70.793 90.5205C70.793 89.4398 71.6572 88.8734 73.3857 88.8213L74.2939 88.792V88.46C74.2939 88.04 74.2028 87.7308 74.0205 87.5322C73.8415 87.3304 73.5534 87.2295 73.1562 87.2295C72.7103 87.2295 72.2057 87.3662 71.6426 87.6396L71.3936 87.0195C71.6572 86.8763 71.9453 86.764 72.2578 86.6826C72.5736 86.6012 72.8893 86.5605 73.2051 86.5605C73.8431 86.5605 74.3151 86.7021 74.6211 86.9854C74.9303 87.2686 75.085 87.7227 75.085 88.3477V92H74.4844ZM72.6533 91.4287C73.1579 91.4287 73.5534 91.2904 73.8398 91.0137C74.1296 90.737 74.2744 90.3496 74.2744 89.8516V89.3682L73.4639 89.4023C72.8193 89.4251 72.3538 89.526 72.0674 89.7051C71.7842 89.8809 71.6426 90.1559 71.6426 90.5303C71.6426 90.8232 71.7305 91.0462 71.9062 91.1992C72.0853 91.3522 72.3343 91.4287 72.6533 91.4287ZM80.2119 90.54C80.2119 91.0381 80.0264 91.4222 79.6553 91.6924C79.2842 91.9626 78.7633 92.0977 78.0928 92.0977C77.3831 92.0977 76.8298 91.9854 76.4326 91.7607V91.0088C76.6898 91.139 76.9648 91.2415 77.2578 91.3164C77.554 91.3913 77.8389 91.4287 78.1123 91.4287C78.5355 91.4287 78.861 91.362 79.0889 91.2285C79.3167 91.0918 79.4307 90.8851 79.4307 90.6084C79.4307 90.4001 79.3395 90.2227 79.1572 90.0762C78.9782 89.9264 78.6266 89.7507 78.1025 89.5488C77.6045 89.3633 77.2497 89.2021 77.0381 89.0654C76.8298 88.9255 76.6735 88.7676 76.5693 88.5918C76.4684 88.416 76.418 88.2061 76.418 87.9619C76.418 87.5257 76.5954 87.1823 76.9502 86.9316C77.305 86.6777 77.7917 86.5508 78.4102 86.5508C78.9863 86.5508 79.5495 86.668 80.0996 86.9023L79.8115 87.5615C79.2744 87.3402 78.7878 87.2295 78.3516 87.2295C77.9674 87.2295 77.6777 87.2897 77.4824 87.4102C77.2871 87.5306 77.1895 87.6966 77.1895 87.9082C77.1895 88.0514 77.2253 88.1735 77.2969 88.2744C77.3717 88.3753 77.4906 88.4714 77.6533 88.5625C77.8161 88.6536 78.1286 88.7855 78.5908 88.958C79.2256 89.1891 79.6536 89.4219 79.875 89.6562C80.0996 89.8906 80.2119 90.1852 80.2119 90.54ZM84.9873 90.54C84.9873 91.0381 84.8018 91.4222 84.4307 91.6924C84.0596 91.9626 83.5387 92.0977 82.8682 92.0977C82.1585 92.0977 81.6051 91.9854 81.208 91.7607V91.0088C81.4652 91.139 81.7402 91.2415 82.0332 91.3164C82.3294 91.3913 82.6143 91.4287 82.8877 91.4287C83.3109 91.4287 83.6364 91.362 83.8643 91.2285C84.0921 91.0918 84.2061 90.8851 84.2061 90.6084C84.2061 90.4001 84.1149 90.2227 83.9326 90.0762C83.7536 89.9264 83.402 89.7507 82.8779 89.5488C82.3799 89.3633 82.0251 89.2021 81.8135 89.0654C81.6051 88.9255 81.4489 88.7676 81.3447 88.5918C81.2438 88.416 81.1934 88.2061 81.1934 87.9619C81.1934 87.5257 81.3708 87.1823 81.7256 86.9316C82.0804 86.6777 82.5671 86.5508 83.1855 86.5508C83.7617 86.5508 84.3249 86.668 84.875 86.9023L84.5869 87.5615C84.0498 87.3402 83.5632 87.2295 83.127 87.2295C82.7428 87.2295 82.4531 87.2897 82.2578 87.4102C82.0625 87.5306 81.9648 87.6966 81.9648 87.9082C81.9648 88.0514 82.0007 88.1735 82.0723 88.2744C82.1471 88.3753 82.266 88.4714 82.4287 88.5625C82.5915 88.6536 82.904 88.7855 83.3662 88.958C84.001 89.1891 84.429 89.4219 84.6504 89.6562C84.875 89.8906 84.9873 90.1852 84.9873 90.54ZM88.5713 92.0977C87.7803 92.0977 87.1553 91.8568 86.6963 91.375C86.2406 90.8932 86.0127 90.2243 86.0127 89.3682C86.0127 88.5055 86.2243 87.8203 86.6475 87.3125C87.0739 86.8047 87.6452 86.5508 88.3613 86.5508C89.0319 86.5508 89.5625 86.7721 89.9531 87.2148C90.3438 87.6543 90.5391 88.2354 90.5391 88.958V89.4707H86.8525C86.8688 90.099 87.0267 90.5758 87.3262 90.9014C87.6289 91.2269 88.0537 91.3896 88.6006 91.3896C89.1768 91.3896 89.7464 91.2692 90.3096 91.0283V91.751C90.0231 91.8747 89.7513 91.9626 89.4941 92.0146C89.2402 92.07 88.9326 92.0977 88.5713 92.0977ZM88.3516 87.2295C87.9219 87.2295 87.5785 87.3695 87.3213 87.6494C87.0674 87.9294 86.9176 88.3167 86.8721 88.8115H89.6699C89.6699 88.3005 89.556 87.9098 89.3281 87.6396C89.1003 87.3662 88.7747 87.2295 88.3516 87.2295ZM93.6543 91.4287C93.7975 91.4287 93.9359 91.4189 94.0693 91.3994C94.2028 91.3766 94.3086 91.3538 94.3867 91.3311V91.9512C94.2988 91.9935 94.1686 92.0277 93.9961 92.0537C93.8268 92.083 93.6738 92.0977 93.5371 92.0977C92.502 92.0977 91.9844 91.5524 91.9844 90.4619V87.2783H91.2178V86.8877L91.9844 86.5508L92.3262 85.4082H92.7949V86.6484H94.3477V87.2783H92.7949V90.4277C92.7949 90.75 92.8714 90.9974 93.0244 91.1699C93.1774 91.3424 93.3874 91.4287 93.6543 91.4287Z" fill="#57575F"/>
  <path d="M64.5383 45.077L75.3301 63.7691H53.7464L64.5383 45.077Z" fill="#7A7A85"/>
  <path d="M56.2307 51.3076L61.6266 60.6536H50.8348L56.2307 51.3076Z" fill="#7A7A85"/>
  <path d="M57.2694 49.2307C58.99 49.2307 60.3847 47.8359 60.3847 46.1153C60.3847 44.3948 58.99 43 57.2694 43C55.5488 43 54.1541 44.3948 54.1541 46.1153C54.1541 47.8359 55.5488 49.2307 57.2694 49.2307Z" fill="#7A7A85"/>
  <circle cx="62.5" cy="55.5" r="19.5" stroke="#57575F" stroke-width="2"/>
  <path d="M49 42L76 69M49 69L76 42" stroke="#57575F" stroke-width="3"/>
</svg>
